<?xml version="1.0" standalone="no"?>
<!DOCTYPE svg PUBLIC "-//W3C//DTD SVG 1.0//EN" "http://www.w3.org/TR/2001/REC-SVG-20010904/DTD/svg10.dtd">
<svg xmlns="http://www.w3.org/2000/svg" xmlns:xlink="http://www.w3.org/1999/xlink" id="body_1" width="72665" height="72665">

<g transform="matrix(242.21666 0 0 242.21666 0 0)">
	<g transform="matrix(0.1 0 -0 -0.1 0 300)">
        <path d="M1502 2445C 1502 2429 1504 2423 1507 2433C 1509 2442 1509 2456 1507 2463C 1504 2469 1502 2462 1502 2445z" stroke="none" fill="#000000" fill-rule="nonzero" />
        <path d="M1371 2374C 1371 2363 1374 2360 1377 2368C 1380 2375 1379 2384 1376 2387C 1373 2391 1370 2385 1371 2374z" stroke="none" fill="#000000" fill-rule="nonzero" />
        <path d="M1504 2200C 1504 2148 1505 2126 1507 2153C 1509 2179 1509 2221 1507 2248C 1505 2274 1504 2252 1504 2200z" stroke="none" fill="#000000" fill-rule="nonzero" />
        <path d="M2029 2263C 2016 2247 2017 2246 2033 2259C 2042 2266 2050 2274 2050 2276C 2050 2284 2042 2279 2029 2263z" stroke="none" fill="#000000" fill-rule="nonzero" />
        <path d="M1601 2194C 1601 2183 1604 2180 1607 2188C 1610 2195 1609 2204 1606 2207C 1603 2211 1600 2205 1601 2194z" stroke="none" fill="#000000" fill-rule="nonzero" />
        <path d="M1411 2154C 1411 2143 1414 2140 1417 2148C 1420 2155 1419 2164 1416 2167C 1413 2171 1410 2165 1411 2154z" stroke="none" fill="#000000" fill-rule="nonzero" />
        <path d="M1939 2153C 1926 2137 1927 2136 1943 2149C 1959 2162 1964 2170 1956 2170C 1954 2170 1946 2162 1939 2153z" stroke="none" fill="#000000" fill-rule="nonzero" />
        <path d="M2114 2148L2095 2125L2118 2144C 2139 2162 2145 2170 2137 2170C 2135 2170 2125 2160 2114 2148z" stroke="none" fill="#000000" fill-rule="nonzero" />
        <path d="M1210 2141C 1210 2135 1214 2128 1220 2125C 1226 2122 1227 2126 1224 2134C 1217 2152 1210 2155 1210 2141z" stroke="none" fill="#000000" fill-rule="nonzero" />
        <path d="M1581 2074C 1581 2063 1584 2060 1587 2068C 1590 2075 1589 2084 1586 2087C 1583 2091 1580 2085 1581 2074z" stroke="none" fill="#000000" fill-rule="nonzero" />
        <path d="M1432 2020C 1432 2006 1434 2001 1437 2008C 1439 2014 1439 2026 1437 2033C 1434 2039 1432 2034 1432 2020z" stroke="none" fill="#000000" fill-rule="nonzero" />
        <path d="M1636 2015C 1627 1989 1629 1983 1641 2003C 1647 2013 1650 2024 1647 2026C 1645 2029 1640 2024 1636 2015z" stroke="none" fill="#000000" fill-rule="nonzero" />
        <path d="M1060 2006C 1060 2004 1068 1996 1078 1989C 1093 1976 1094 1977 1081 1993C 1068 2009 1060 2014 1060 2006z" stroke="none" fill="#000000" fill-rule="nonzero" />
        <path d="M2124 1994C 2106 1980 2106 1979 2128 1990C 2140 1996 2150 2003 2150 2005C 2150 2013 2145 2011 2124 1994z" stroke="none" fill="#000000" fill-rule="nonzero" />
        <path d="M1441 1974C 1441 1963 1444 1960 1447 1968C 1450 1975 1449 1984 1446 1987C 1443 1991 1440 1985 1441 1974z" stroke="none" fill="#000000" fill-rule="nonzero" />
        <path d="M2045 1950C 2042 1944 2046 1943 2054 1946C 2072 1953 2075 1960 2061 1960C 2055 1960 2048 1956 2045 1950z" stroke="none" fill="#000000" fill-rule="nonzero" />
        <path d="M1854 1928L1835 1905L1858 1924C 1879 1942 1885 1950 1877 1950C 1875 1950 1865 1940 1854 1928z" stroke="none" fill="#000000" fill-rule="nonzero" />
        <path d="M1552 1905C 1552 1889 1554 1883 1557 1893C 1559 1902 1559 1916 1557 1923C 1554 1929 1552 1922 1552 1905z" stroke="none" fill="#000000" fill-rule="nonzero" />
        <path d="M1880 1855C 1866 1847 1860 1841 1866 1840C 1871 1840 1885 1847 1896 1855C 1920 1873 1912 1874 1880 1855z" stroke="none" fill="#000000" fill-rule="nonzero" />
        <path d="M1255 1840C 1265 1829 1275 1820 1278 1820C 1281 1820 1275 1829 1265 1840C 1255 1851 1245 1860 1242 1860C 1239 1860 1245 1851 1255 1840z" stroke="none" fill="#000000" fill-rule="nonzero" />
        <path d="M698 1773C 705 1770 714 1771 717 1774C 721 1777 715 1780 704 1779C 693 1779 690 1776 698 1773z" stroke="none" fill="#000000" fill-rule="nonzero" />
        <path d="M808 1753C 814 1751 826 1751 833 1753C 839 1756 834 1758 820 1758C 806 1758 801 1756 808 1753z" stroke="none" fill="#000000" fill-rule="nonzero" />
        <path d="M2178 1753C 2184 1751 2196 1751 2203 1753C 2209 1756 2204 1758 2190 1758C 2176 1758 2171 1756 2178 1753z" stroke="none" fill="#000000" fill-rule="nonzero" />
        <path d="M1311 1673C 1324 1658 1322 1657 1293 1663C 1274 1667 1260 1665 1260 1660C 1260 1654 1253 1650 1245 1650C 1237 1650 1230 1646 1230 1641C 1230 1636 1220 1629 1208 1627C 1195 1624 1210 1624 1240 1627C 1270 1630 1379 1632 1481 1633C 1627 1635 1666 1632 1663 1622C 1659 1613 1601 1610 1416 1610C 1078 1611 1075 1609 1075 1405L1075 1405L1075 1295L1104 1297C 1121 1298 1138 1306 1142 1315C 1147 1323 1159 1330 1170 1330C 1187 1330 1187 1328 1174 1301C 1156 1264 1169 1223 1205 1210C 1244 1195 1260 1198 1260 1219C 1260 1230 1264 1242 1270 1245C 1276 1249 1277 1244 1273 1233C 1267 1217 1268 1217 1283 1229C 1302 1244 1305 1282 1290 1311C 1275 1338 1305 1337 1322 1310C 1334 1291 1346 1290 1505 1290L1505 1290L1675 1290L1692 1320C 1702 1337 1718 1351 1730 1351C 1741 1352 1756 1353 1763 1354C 1789 1358 1832 1336 1843 1313C 1852 1293 1860 1289 1894 1292C 1937 1295 1949 1312 1935 1348C 1931 1357 1927 1386 1926 1412C 1925 1447 1916 1470 1891 1505C 1873 1530 1857 1558 1856 1567C 1852 1590 1825 1598 1758 1599C 1696 1600 1670 1607 1670 1622C 1670 1629 1694 1631 1738 1628C 1787 1624 1798 1625 1780 1632C 1766 1637 1683 1645 1595 1648L1595 1648L1435 1655L1563 1664C 1634 1668 1726 1669 1768 1666C 1827 1662 1837 1663 1810 1670C 1768 1682 1501 1684 1400 1674C 1351 1669 1330 1671 1330 1679C 1330 1685 1323 1690 1314 1690C 1300 1690 1299 1688 1311 1673zM1501 1560C 1518 1560 1521 1554 1518 1518L1518 1518L1515 1475L1465 1475L1415 1475L1412 1513C 1409 1544 1413 1552 1432 1559C 1445 1565 1461 1567 1468 1564C 1476 1562 1491 1560 1501 1560zM1385 1515L1385 1475L1275 1472C 1132 1468 1120 1471 1120 1514C 1120 1532 1123 1550 1127 1554C 1131 1557 1190 1559 1259 1558L1259 1558L1385 1555L1385 1515zM1658 1521C 1662 1482 1649 1470 1603 1470C 1551 1470 1544 1476 1548 1521L1548 1521L1552 1561L1604 1558C 1654 1555 1655 1554 1658 1521zM1863 1521C 1888 1483 1889 1481 1870 1475C 1848 1468 1724 1469 1698 1477C 1685 1480 1680 1492 1680 1521L1680 1521L1680 1560L1759 1560L1837 1560L1863 1521zM1698 1453C 1688 1451 1680 1439 1679 1427C 1679 1415 1676 1411 1673 1418C 1665 1438 1678 1460 1697 1459C 1714 1458 1714 1457 1698 1453zM1778 1453C 1768 1451 1752 1451 1743 1453C 1733 1456 1741 1458 1760 1458C 1779 1458 1787 1456 1778 1453zM1270 1409C 1270 1403 1243 1400 1205 1402C 1169 1403 1140 1407 1140 1411C 1140 1415 1169 1418 1205 1419C 1242 1419 1270 1415 1270 1409zM1204 1306C 1192 1297 1189 1284 1192 1262C 1194 1245 1193 1233 1188 1236C 1176 1244 1178 1288 1192 1309C 1199 1320 1208 1326 1213 1323C 1217 1320 1214 1312 1204 1306zM1250 1285C 1265 1267 1255 1250 1229 1250C 1217 1250 1210 1257 1210 1268C 1210 1301 1230 1310 1250 1285zM1243 1223C 1236 1221 1224 1221 1218 1223C 1211 1226 1216 1228 1230 1228C 1244 1228 1249 1226 1243 1223z" stroke="none" fill="#000000" fill-rule="nonzero" />
        <path d="M683 1633C 692 1631 706 1631 713 1633C 719 1636 712 1638 695 1638C 679 1638 673 1636 683 1633z" stroke="none" fill="#000000" fill-rule="nonzero" />
        <path d="M778 1633C 785 1630 794 1631 797 1634C 801 1637 795 1640 784 1639C 773 1639 770 1636 778 1633z" stroke="none" fill="#000000" fill-rule="nonzero" />
        <path d="M1053 1633C 1062 1631 1078 1631 1088 1633C 1097 1636 1089 1638 1070 1638C 1051 1638 1043 1636 1053 1633z" stroke="none" fill="#000000" fill-rule="nonzero" />
        <path d="M2013 1633C 2028 1631 2050 1631 2063 1633C 2075 1635 2063 1637 2035 1637C 2008 1637 1997 1635 2013 1633z" stroke="none" fill="#000000" fill-rule="nonzero" />
        <path d="M2178 1633C 2184 1631 2196 1631 2203 1633C 2209 1636 2204 1638 2190 1638C 2176 1638 2171 1636 2178 1633z" stroke="none" fill="#000000" fill-rule="nonzero" />
        <path d="M2258 1633C 2264 1631 2276 1631 2283 1633C 2289 1636 2284 1638 2270 1638C 2256 1638 2251 1636 2258 1633z" stroke="none" fill="#000000" fill-rule="nonzero" />
        <path d="M1722 1324C 1707 1314 1700 1299 1700 1276C 1700 1229 1721 1206 1763 1206C 1811 1206 1830 1224 1830 1271C 1830 1312 1804 1340 1765 1340C 1754 1340 1734 1333 1722 1324zM1788 1272C 1791 1254 1787 1250 1766 1250C 1747 1250 1740 1255 1740 1268C 1740 1307 1783 1311 1788 1272zM1783 1223C 1776 1221 1764 1221 1758 1223C 1751 1226 1756 1228 1770 1228C 1784 1228 1789 1226 1783 1223z" stroke="none" fill="#000000" fill-rule="nonzero" />
        <path d="M880 1071C 858 1030 873 938 899 954C 906 958 908 955 904 947C 901 939 903 929 909 925C 925 916 923 827 908 832C 901 835 894 849 892 863C 888 898 870 888 870 851C 870 796 931 773 944 823C 954 859 951 910 939 910C 933 910 931 917 934 927C 938 937 938 941 934 937C 923 926 898 982 898 1018C 898 1053 910 1074 917 1052C 920 1046 926 1043 932 1046C 938 1050 940 1044 935 1030C 930 1015 931 1010 939 1014C 954 1023 953 1063 938 1078C 920 1096 892 1092 880 1071z" stroke="none" fill="#000000" fill-rule="nonzero" />
        <path d="M998 1082C 982 1079 980 1064 980 939C 980 860 984 800 989 800C 994 800 998 814 998 830C 997 871 1006 878 1030 852C 1042 839 1047 824 1043 814C 1039 802 1040 799 1048 804C 1064 814 1063 826 1044 866C 1029 898 1029 902 1044 913C 1064 928 1076 1015 1062 1051C 1051 1078 1029 1089 998 1082zM1040 1000C 1040 970 1035 948 1025 940C 1002 921 997 933 1005 999C 1010 1044 1015 1057 1026 1053C 1035 1050 1040 1032 1040 1000z" stroke="none" fill="#000000" fill-rule="nonzero" />
        <path d="M2071 1081C 2064 1076 2056 1053 2053 1028C 2049 991 2052 979 2074 953C 2094 930 2100 911 2100 876C 2100 851 2096 830 2090 830C 2085 830 2080 841 2080 855C 2080 871 2074 880 2065 880C 2043 880 2046 834 2070 810C 2095 785 2107 785 2120 809C 2134 835 2133 910 2119 910C 2113 910 2110 916 2113 924C 2116 932 2110 950 2099 963C 2088 978 2080 1004 2080 1024C 2080 1058 2082 1060 2105 1054C 2132 1047 2138 1058 2118 1078C 2104 1092 2090 1093 2071 1081z" stroke="none" fill="#000000" fill-rule="nonzero" />
        <path d="M1099 1048C 1094 868 1096 816 1108 813C 1116 810 1120 822 1121 852L1121 852L1121 895L1140 854C 1150 831 1164 809 1172 804C 1183 798 1182 799 1171 813C 1164 822 1161 837 1164 846C 1167 855 1160 879 1148 901L1148 901L1127 939L1153 998C 1168 1031 1180 1063 1180 1069C 1180 1092 1163 1078 1143 1038L1143 1038L1121 995L1121 1038C 1120 1087 1100 1096 1099 1048z" stroke="none" fill="#000000" fill-rule="nonzero" />
        <path d="M1390 1008C 1370 882 1365 875 1351 960C 1335 1054 1331 1070 1319 1070C 1307 1070 1307 1064 1326 951C 1342 849 1357 800 1371 800C 1381 800 1383 810 1404 943C 1422 1056 1424 1080 1411 1080C 1406 1080 1397 1047 1390 1008zM1374 835C 1370 827 1366 820 1364 820C 1362 820 1360 827 1360 835C 1360 843 1364 850 1370 850C 1375 850 1377 843 1374 835z" stroke="none" fill="#000000" fill-rule="nonzero" />
        <path d="M1466 1069C 1456 1038 1428 819 1433 813C 1448 799 1462 826 1457 859C 1453 890 1456 896 1471 897C 1489 899 1493 891 1505 833C 1512 800 1530 787 1530 815C 1530 824 1521 884 1509 948C 1489 1061 1476 1099 1466 1069zM1492 946C 1499 950 1500 948 1496 942C 1485 924 1470 928 1471 948C 1471 958 1474 960 1477 952C 1479 946 1487 943 1492 946z" stroke="none" fill="#000000" fill-rule="nonzero" />
        <path d="M1559 1038C 1559 1014 1558 955 1557 906C 1555 842 1559 816 1568 813C 1577 809 1580 828 1581 882L1581 882L1582 955L1604 888C 1627 814 1642 794 1660 805C 1669 811 1671 844 1667 934C 1663 1001 1660 1061 1660 1068C 1660 1074 1656 1080 1650 1080C 1644 1080 1640 1037 1639 973L1639 973L1638 865L1620 930C 1610 966 1596 1014 1590 1038C 1584 1061 1575 1080 1570 1080C 1564 1080 1560 1061 1559 1038zM1590 990C 1590 985 1588 980 1586 980C 1583 980 1578 985 1575 990C 1572 996 1574 1000 1579 1000C 1585 1000 1590 996 1590 990z" stroke="none" fill="#000000" fill-rule="nonzero" />
        <path d="M1740 1068C 1740 1057 1748 1050 1760 1050C 1778 1050 1780 1043 1781 988C 1781 953 1783 914 1785 900C 1787 886 1790 858 1792 838C 1793 817 1798 800 1802 800C 1806 800 1810 856 1810 924C 1810 1039 1811 1048 1830 1053C 1861 1061 1854 1080 1820 1080C 1804 1080 1790 1076 1790 1071C 1790 1059 1757 1062 1748 1075C 1744 1081 1740 1077 1740 1068z" stroke="none" fill="#000000" fill-rule="nonzero" />
        <path d="M1942 1060C 1925 1032 1926 841 1944 818C 1961 795 2020 793 2020 815C 2020 825 2010 830 1990 830C 1964 830 1960 834 1954 867C 1949 896 1951 906 1966 918C 1982 931 1983 932 1968 927C 1958 923 1950 925 1950 930C 1950 936 1959 940 1970 940C 1981 940 1990 935 1990 929C 1990 924 1995 922 2000 925C 2012 932 2014 951 2003 949C 1998 948 1985 948 1972 949C 1951 950 1949 954 1952 997C 1955 1041 1957 1044 1988 1052C 2029 1063 2029 1080 1987 1080C 1966 1080 1951 1073 1942 1060z" stroke="none" fill="#000000" fill-rule="nonzero" />
        <path d="M1700 934C 1700 847 1704 801 1710 805C 1716 809 1720 865 1720 941C 1720 1020 1716 1070 1710 1070C 1704 1070 1700 1018 1700 934z" stroke="none" fill="#000000" fill-rule="nonzero" />
        <path d="M1877 1063C 1868 1055 1868 837 1876 816C 1891 776 1900 822 1900 941C 1900 1059 1896 1082 1877 1063z" stroke="none" fill="#000000" fill-rule="nonzero" />
        <path d="M381 673C 382 652 384 643 387 652C 389 661 399 671 408 673C 423 677 423 678 408 679C 398 679 390 684 390 689C 390 694 398 701 408 703C 421 707 419 708 403 709C 383 710 380 705 381 673z" stroke="none" fill="#000000" fill-rule="nonzero" />
        <path d="M450 675C 450 645 453 640 473 641C 489 642 491 643 478 647C 468 649 460 655 460 660C 460 665 468 671 478 673C 494 677 494 678 478 679C 468 679 460 684 460 689C 460 694 468 701 478 703C 491 707 489 708 473 709C 453 710 450 705 450 675z" stroke="none" fill="#000000" fill-rule="nonzero" />
        <path d="M527 703C 512 689 521 670 543 671C 559 672 561 673 548 677C 538 679 530 685 530 690C 530 695 538 701 548 703C 562 707 562 708 549 709C 540 709 530 707 527 703z" stroke="none" fill="#000000" fill-rule="nonzero" />
        <path d="M721 692C 705 662 707 655 735 655C 764 655 764 656 746 689C 733 713 732 713 721 692zM740 680C 740 675 735 670 729 670C 724 670 722 675 725 680C 728 686 733 690 736 690C 738 690 740 686 740 680z" stroke="none" fill="#000000" fill-rule="nonzero" />
        <path d="M787 702C 793 698 800 681 803 665L803 665L807 635L809 667C 809 684 816 701 823 703C 829 706 822 709 805 709C 789 709 780 706 787 702z" stroke="none" fill="#000000" fill-rule="nonzero" />
        <path d="M997 704C 984 691 990 649 1006 643C 1030 634 1057 666 1044 688C 1032 707 1008 715 997 704zM1035 675C 1035 664 1027 654 1018 652C 1004 649 1000 655 1000 675C 1000 695 1004 701 1018 698C 1027 696 1035 686 1035 675z" stroke="none" fill="#000000" fill-rule="nonzero" />
        <path d="M1180 675C 1180 645 1183 640 1203 641C 1219 642 1221 643 1208 647C 1198 649 1190 655 1190 660C 1190 665 1198 671 1208 673C 1224 677 1224 678 1208 679C 1198 679 1190 684 1190 689C 1190 694 1198 701 1208 703C 1221 707 1219 708 1203 709C 1183 710 1180 705 1180 675z" stroke="none" fill="#000000" fill-rule="nonzero" />
        <path d="M1331 708C 1330 704 1335 689 1342 675C 1353 650 1370 641 1370 660C 1370 666 1366 670 1362 670C 1357 670 1348 680 1342 693C 1336 705 1331 712 1331 708z" stroke="none" fill="#000000" fill-rule="nonzero" />
        <path d="M1460 695C 1460 677 1424 675 1417 693C 1414 699 1412 692 1412 675C 1412 659 1414 651 1417 658C 1424 676 1458 673 1463 653C 1466 643 1468 652 1469 673C 1469 693 1468 710 1465 710C 1462 710 1460 703 1460 695z" stroke="none" fill="#000000" fill-rule="nonzero" />
        <path d="M1501 673C 1502 652 1504 643 1507 652C 1509 661 1519 671 1528 673C 1543 677 1543 678 1528 679C 1518 679 1510 684 1510 689C 1510 694 1518 701 1528 703C 1541 707 1539 708 1523 709C 1503 710 1500 705 1501 673z" stroke="none" fill="#000000" fill-rule="nonzero" />
        <path d="M1588 703C 1594 701 1606 701 1613 703C 1619 706 1614 708 1600 708C 1586 708 1581 706 1588 703z" stroke="none" fill="#000000" fill-rule="nonzero" />
        <path d="M1660 675C 1660 645 1663 640 1683 641C 1699 642 1701 643 1688 647C 1678 649 1670 655 1670 660C 1670 665 1678 671 1688 673C 1704 677 1704 678 1688 679C 1678 679 1670 684 1670 689C 1670 694 1678 701 1688 703C 1701 707 1699 708 1683 709C 1663 710 1660 705 1660 675z" stroke="none" fill="#000000" fill-rule="nonzero" />
        <path d="M1810 675C 1810 645 1813 640 1833 641C 1849 642 1851 643 1838 647C 1828 649 1820 655 1820 660C 1820 665 1828 671 1838 673C 1854 677 1854 678 1838 679C 1828 679 1820 684 1820 689C 1820 694 1828 701 1838 703C 1851 707 1849 708 1833 709C 1813 710 1810 705 1810 675z" stroke="none" fill="#000000" fill-rule="nonzero" />
        <path d="M1890 701C 1890 695 1897 693 1905 696C 1913 700 1920 697 1920 691C 1920 685 1912 680 1903 679C 1889 679 1888 677 1900 673C 1908 670 1919 662 1923 656C 1927 650 1929 658 1928 675C 1926 694 1919 706 1908 708C 1898 710 1890 707 1890 701z" stroke="none" fill="#000000" fill-rule="nonzero" />
        <path d="M2087 704C 2083 700 2080 685 2081 671L2081 671L2082 645L2089 670C 2099 705 2130 710 2130 676C 2130 663 2123 649 2115 647C 2104 643 2105 643 2117 644C 2144 646 2142 704 2115 708C 2103 710 2091 708 2087 704z" stroke="none" fill="#000000" fill-rule="nonzero" />
        <path d="M2172 680C 2172 661 2174 653 2177 663C 2179 672 2179 688 2177 698C 2174 707 2172 699 2172 680z" stroke="none" fill="#000000" fill-rule="nonzero" />
        <path d="M2301 673C 2302 652 2304 643 2307 653C 2313 675 2326 675 2338 653C 2346 640 2347 644 2346 671C 2345 698 2340 706 2322 708C 2302 711 2300 707 2301 673zM2340 690C 2340 685 2333 680 2325 680C 2317 680 2310 685 2310 690C 2310 696 2317 700 2325 700C 2333 700 2340 696 2340 690z" stroke="none" fill="#000000" fill-rule="nonzero" />
        <path d="M2413 704C 2436 697 2437 647 2413 652C 2404 654 2393 666 2389 680L2389 680L2382 705L2381 678C 2380 649 2413 629 2432 648C 2448 664 2437 705 2415 707C 2399 708 2399 708 2413 704z" stroke="none" fill="#000000" fill-rule="nonzero" />
        <path d="M2482 685C 2466 651 2466 652 2495 658C 2523 663 2525 669 2507 694C 2495 711 2493 710 2482 685zM2505 680C 2508 675 2506 670 2501 670C 2495 670 2490 675 2490 680C 2490 686 2492 690 2494 690C 2497 690 2502 686 2505 680z" stroke="none" fill="#000000" fill-rule="nonzero" />
        <path d="M2612 680C 2612 661 2614 653 2617 663C 2619 672 2619 688 2617 698C 2614 707 2612 699 2612 680z" stroke="none" fill="#000000" fill-rule="nonzero" />
        <path d="M902 670C 902 651 904 643 907 653C 912 673 946 676 953 658C 956 651 958 659 958 675C 958 692 956 699 953 693C 951 686 940 680 930 680C 920 680 909 686 907 693C 904 699 902 689 902 670z" stroke="none" fill="#000000" fill-rule="nonzero" />
        <path d="M1080 671C 1080 654 1082 640 1084 640C 1092 640 1097 691 1089 696C 1084 699 1080 687 1080 671z" stroke="none" fill="#000000" fill-rule="nonzero" />
        <path d="M1126 683C 1120 669 1121 668 1131 677C 1138 684 1141 692 1138 695C 1135 698 1129 693 1126 683z" stroke="none" fill="#000000" fill-rule="nonzero" />
        <path d="M1731 695C 1731 690 1737 674 1745 660L1745 660L1758 635L1770 664C 1776 680 1779 695 1776 697C 1774 700 1769 691 1765 679L1765 679L1758 657L1744 681C 1737 694 1731 701 1731 695z" stroke="none" fill="#000000" fill-rule="nonzero" />
        <path d="M2021 677L2033 650L2045 673C 2051 685 2055 697 2052 700C 2049 703 2045 699 2043 692C 2039 682 2035 682 2023 691C 2011 702 2011 700 2021 677z" stroke="none" fill="#000000" fill-rule="nonzero" />
        <path d="M2560 691C 2560 685 2564 678 2570 675C 2576 672 2577 676 2574 684C 2567 702 2560 705 2560 691z" stroke="none" fill="#000000" fill-rule="nonzero" />
        <path d="M1595 680C 1579 673 1578 671 1592 671C 1601 670 1611 664 1613 658C 1616 651 1619 655 1619 668C 1620 680 1619 690 1618 689C 1616 689 1606 685 1595 680z" stroke="none" fill="#000000" fill-rule="nonzero" />
        <path d="M1300 675C 1300 670 1304 659 1309 652C 1315 641 1319 642 1324 656C 1327 665 1328 675 1325 678C 1322 681 1320 677 1320 669C 1320 658 1318 658 1310 670C 1305 678 1300 681 1300 675z" stroke="none" fill="#000000" fill-rule="nonzero" />
        <path d="M1100 661C 1100 656 1105 648 1110 645C 1116 642 1120 643 1120 649C 1120 654 1116 662 1110 665C 1105 668 1100 667 1100 661z" stroke="none" fill="#000000" fill-rule="nonzero" />
        <path d="M2585 660C 2582 655 2584 650 2589 650C 2595 650 2600 655 2600 660C 2600 666 2598 670 2596 670C 2593 670 2588 666 2585 660z" stroke="none" fill="#000000" fill-rule="nonzero" />
        <path d="M528 648C 533 643 544 640 551 642C 559 645 554 649 541 653C 524 657 520 656 528 648z" stroke="none" fill="#000000" fill-rule="nonzero" />
        <path d="M2200 650C 2191 644 2190 640 2197 640C 2203 640 2212 645 2215 650C 2223 662 2219 662 2200 650z" stroke="none" fill="#000000" fill-rule="nonzero" />
        <path d="M608 643C 615 640 624 641 627 644C 631 647 625 650 614 649C 603 649 600 646 608 643z" stroke="none" fill="#000000" fill-rule="nonzero" />
	</g>
</g>
</svg>